# xmcd CD database file
#
# Track frame offsets:
#	150
#	21750
#	36575
#	56550
#	75702
#	94675
#	108140
#	126255
#	146797
#	162905
#	181112
#	198080
#	228305
#
# Disc length: 3398 seconds
#
# Revision: 0
# Processed by: cddbd v1.5.1PL0 Copyright (c) Steve Scherf et al.
# Submitted via: CDex 1.51
#
DISCID=a60d440d
DTITLE=Pure Shore - Pure Shore
DYEAR=2004
DGENRE=Country
TTITLE0=Believe - Luz
TTITLE1=Way Of The World - Jennifer Paige
TTITLE2=Stay - Wendy Phillips
TTITLE3=That's When I'll Give Up - Jennifer
TTITLE4=Where Do Broken Hearts Go - Carroll Thompson
TTITLE5=Money in My Pocket - Simply Red
TTITLE6=Get To Me - Jennifer Paige
TTITLE7=Something That You Said - the Bangles
TTITLE8=Juliet - Sunland
TTITLE9=Now and Forever ~ Sweet Memory - Keali'i Reichel
TTITLE10=World Filled With Love - Craig David
TTITLE11=Heaven - Luz
TTITLE12=Data Record
EXTD=YEAR: 2004
EXTT0=
EXTT1=
EXTT2=
EXTT3=
EXTT4=
EXTT5=
EXTT6=
EXTT7=
EXTT8=
EXTT9=
EXTT10=
EXTT11=
EXTT12=
PLAYORDER=
